<svg width="23" height="20" viewBox="0 0 23 20" xmlns="http://www.w3.org/2000/svg" xmlns:xlink="http://www.w3.org/1999/xlink"><title>CheckMark-Green</title><defs><path id="a" d="M11.5 0H23v19.128H0V0z"/></defs><g fill="none" fill-rule="evenodd"><mask id="b" fill="#fff"><use xlink:href="#a"/></mask><path d="M20.644.466L7.785 15.288 2.355 9.03c-.26-.3-.606-.466-.975-.466s-.715.165-.976.466c-.26.3-.404.7-.404 1.124 0 .425.144.825.404 1.125l6.406 7.383c.26.3.607.466.975.466.369 0 .716-.165.976-.466L22.596 2.715c.26-.3.404-.7.404-1.124a1.71 1.71 0 0 0-.404-1.125C22.335.166 21.989 0 21.62 0s-.715.166-.976.466z" fill="#36B4A7" mask="url(#b)"/></g></svg>