<?xml version="1.0" encoding="UTF-8" standalone="no"?>
<svg width="23px" height="20px" viewBox="0 0 23 20" version="1.1" xmlns="http://www.w3.org/2000/svg" xmlns:xlink="http://www.w3.org/1999/xlink">
    <!-- Generator: Sketch 44.1 (41455) - http://www.bohemiancoding.com/sketch -->
    <title>CheckMark-Green</title>
    <desc>Created with Sketch.</desc>
    <defs>
        <polygon id="path-1" points="11.5 0 23 0 23 19.127756 11.5 19.127756 0 19.127756 0 0"></polygon>
    </defs>
    <g id="HDMock-Sports-v3" stroke="none" stroke-width="1" fill="none" fill-rule="evenodd">
        <g id="Template-Sports-Boy-Desktop-v4" transform="translate(-640.000000, -2043.000000)">
            <g id="Desktop-Group" transform="translate(-1.000000, -18.000000)">
                <g id="Body">
                    <g id="BelowFold" transform="translate(0.000000, 146.000000)">
                        <g id="Module-Subscribe" transform="translate(0.000000, 1393.000000)">
                            <g id="Group-5" transform="translate(577.000000, 238.000000)">
                                <g id="Stacked-Group" transform="translate(63.000000, 41.000000)">
                                    <g id="Stacked-Group-2">
                                        <g transform="translate(1.000000, 59.000000)" id="Stacked-Group-3">
                                            <g transform="translate(0.000000, 184.000000)">
                                                <g id="CheckMark-Green">
                                                    <mask id="mask-2" fill="white">
                                                        <use xlink:href="#path-1"></use>
                                                    </mask>
                                                    <g id="Clip-2"></g>
                                                    <path d="M20.6442889,0.465998983 L7.78524467,15.2875355 L2.35571142,9.02954034 C2.09504475,8.72908587 1.74876698,8.56354135 1.38000032,8.56354135 C1.01123366,8.56354135 0.664700331,8.72908587 0.404033668,9.02954034 C0.143367005,9.3299948 -0.000255215095,9.7294225 3.40456922e-07,10.1541826 C3.40456922e-07,10.5792373 0.143622561,10.978665 0.404289223,11.2791195 L6.80953357,18.6620515 C7.07020024,18.962506 7.41673356,19.127756 7.78524467,19.127756 C8.15401133,19.127756 8.50054466,18.962506 8.76095577,18.661757 L22.5957111,2.71528358 C22.8563778,2.41482911 23,2.01540141 23,1.59064128 C23,1.16588115 22.8563778,0.766453447 22.5957111,0.465998983 C22.3350445,0.165544518 21.9887667,0 21.62,0 C21.2512334,0 20.9049556,0.165544518 20.6442889,0.465998983 Z" id="Fill-1" fill="#36B4A7" mask="url(#mask-2)"></path>
                                                </g>
                                            </g>
                                        </g>
                                    </g>
                                </g>
                            </g>
                        </g>
                    </g>
                </g>
            </g>
        </g>
    </g>
</svg>