<?xml version="1.0" encoding="UTF-8" standalone="no"?>
<svg width="50px" height="51px" viewBox="0 0 50 51" version="1.1" xmlns="http://www.w3.org/2000/svg" xmlns:xlink="http://www.w3.org/1999/xlink">
    <!-- Generator: Sketch 44.1 (41455) - http://www.bohemiancoding.com/sketch -->
    <title>Group 8</title>
    <desc>Created with Sketch.</desc>
    <defs></defs>
    <g id="HDMock-Sports-v3" stroke="none" stroke-width="1" fill="none" fill-rule="evenodd">
        <g id="Template-Sports-Boy-Desktop-v4" transform="translate(-658.000000, -1093.000000)" fill="#37444E">
            <g id="Desktop-Group" transform="translate(-1.000000, -18.000000)">
                <g id="Body">
                    <g id="BelowFold" transform="translate(0.000000, 146.000000)">
                        <g id="Module-What'sOnTuneIn" transform="translate(190.000000, 715.000000)">
                            <g id="Stacked-Group-2" transform="translate(2.000000, 89.000000)">
                                <g id="Stacked-Group" transform="translate(0.000000, 81.000000)">
                                    <g id="Group" transform="translate(0.000000, 56.000000)">
                                        <g id="Group-8" transform="translate(467.000000, 24.279552)">
                                            <path d="M25,49.9354283 C11.1909124,49.9354283 0,38.7550707 0,24.9677142 C0,11.1803576 11.1909124,0 25,0 C38.8090876,0 50,11.1803576 50,24.9677142 C50,38.7550707 38.8090876,49.9354283 25,49.9354283 Z M25,47.9445023 C37.6949275,47.9445023 47.9897644,37.659375 47.9897644,24.9677142 C47.9897644,12.2760533 37.6949275,1.99092605 25,1.99092605 C12.3050725,1.99092605 2.01023563,12.2760533 2.01023563,24.9677142 C2.01023563,37.659375 12.3050725,47.9445023 25,47.9445023 Z" id="Oval-3-Copy-3" fill-rule="nonzero"></path>
                                            <path d="M20.3125,14.9802644 L20.3125,33.8088775 C20.3125,34.1653549 20.5182484,34.4959567 20.8365709,34.6512102 C21.1499751,34.8042615 21.5450775,34.7599427 21.8177693,34.5433035 L33.6421525,25.128997 C33.8664811,24.9503454 33.9951763,24.6827809 33.9951763,24.394571 C33.9951763,24.106361 33.8664811,23.8387965 33.6421525,23.6604202 L21.8177693,14.2461137 C21.6540996,14.11591 21.4494442,14.0443392 21.2412367,14.0443392 C21.1018852,14.0443392 20.9619872,14.0768213 20.8365709,14.1379317 C20.5182484,14.2931852 20.3125,14.6240623 20.3125,14.9802644" id="Page-1-Copy-8"></path>
                                        </g>
                                    </g>
                                </g>
                            </g>
                        </g>
                    </g>
                </g>
            </g>
        </g>
    </g>
</svg>