<?xml version="1.0" encoding="UTF-8" standalone="no"?>
<svg width="135px" height="23px" viewBox="0 0 135 23" version="1.1" xmlns="http://www.w3.org/2000/svg" xmlns:xlink="http://www.w3.org/1999/xlink">
    <!-- Generator: Sketch 44.1 (41455) - http://www.bohemiancoding.com/sketch -->
    <title>Ratings</title>
    <desc>Created with Sketch.</desc>
    <defs>
        <polygon id="path-1" points="26.7795918 22.3731203 26.7795918 0 0 0 5.49136822e-16 22.3731203"></polygon>
        <polygon id="path-3" points="24.7959184 22.3731203 24.7959184 0 0 0 5.08460021e-16 22.3731203"></polygon>
        <polygon id="path-5" points="24.7959184 22.3731203 24.7959184 0 0 0 5.08460021e-16 22.3731203"></polygon>
        <polygon id="path-7" points="24.7959184 22.3731203 24.7959184 0 0 0 5.08460021e-16 22.3731203"></polygon>
        <polygon id="path-9" points="24.7959184 22.3731203 24.7959184 0 0 0 5.08460021e-16 22.3731203"></polygon>
    </defs>
    <g id="HDMock-Sports-v3" stroke="none" stroke-width="1" fill="none" fill-rule="evenodd">
        <g id="Template-Sports-Boy-Desktop-v4" transform="translate(-203.000000, -3305.000000)">
            <g id="Desktop-Group" transform="translate(-1.000000, -18.000000)">
                <g id="Body">
                    <g id="BelowFold" transform="translate(0.000000, 146.000000)">
                        <g id="Module-Testimonial" transform="translate(204.000000, 3018.000000)">
                            <g id="Group-2" transform="translate(0.000000, 159.000000)">
                                <g id="Stacked-Group">
                                    <g id="Ratings">
                                        <g id="Stacked-Group">
                                            <g id="Star-Green" transform="translate(108.000000, 0.000000)">
                                                <mask id="mask-2" fill="white">
                                                    <use xlink:href="#path-1"></use>
                                                </mask>
                                                <g id="Clip-2"></g>
                                                <path d="M26.7291015,8.48135922 C26.6002904,8.13609942 26.2497207,7.89598693 25.8357915,7.87009244 L17.8871552,7.36894261 L14.313915,0.520243739 C14.1492399,0.204278713 13.7864168,0 13.3898218,0 C12.9929279,0 12.6304036,0.204278713 12.4654297,0.520243739 L8.89218951,7.36894261 L0.943553201,7.87009244 C0.52962399,7.89598693 0.179054341,8.13609942 0.0505420229,8.48109766 C-0.0779702953,8.82661901 0.0433692424,9.20091202 0.36016705,9.43579331 L6.98751741,14.3437136 L4.7651509,21.2452477 C4.65068528,21.5996621 4.80131367,21.984156 5.13992869,22.2020358 C5.47435958,22.4183463 5.94746423,22.4306397 6.29594182,22.2326384 L13.3898218,18.2059153 L20.4834029,22.2326384 C20.8318805,22.4306397 21.3049851,22.4178232 21.6391171,22.2022974 C21.9777322,21.984156 22.1286594,21.5996621 22.0144927,21.2452477 L19.7918273,14.3437136 L26.4191777,9.43579331 C26.7359755,9.20091202 26.8576139,8.82661901 26.7291015,8.48135922 L26.7291015,8.48135922 Z" id="Fill-1" fill="#36B4A7" mask="url(#mask-2)"></path>
                                            </g>
                                            <g id="Star-Green" transform="translate(81.000000, 0.000000)">
                                                <mask id="mask-4" fill="white">
                                                    <use xlink:href="#path-3"></use>
                                                </mask>
                                                <g id="Clip-2"></g>
                                                <path d="M24.7491681,8.48135922 C24.6298985,8.13609942 24.305297,7.89598693 23.9220292,7.87009244 L16.5621807,7.36894261 L13.253625,0.520243739 C13.1011481,0.204278713 12.7652007,0 12.3979831,0 C12.0304888,0 11.6948182,0.204278713 11.5420645,0.520243739 L8.23350881,7.36894261 L0.873660372,7.87009244 C0.490392584,7.89598693 0.165791057,8.13609942 0.0467981694,8.48109766 C-0.0721947178,8.82661901 0.0401567059,9.20091202 0.333488009,9.43579331 L6.46992353,14.3437136 L4.41217676,21.2452477 C4.30619008,21.5996621 4.44566081,21.984156 4.75919323,22.2020358 C5.06885146,22.4183463 5.50691133,22.4306397 5.82957576,22.2326384 L12.3979831,18.2059153 L18.9661138,22.2326384 C19.2887782,22.4306397 19.7268381,22.4178232 20.0362196,22.2022974 C20.349752,21.984156 20.4894995,21.5996621 20.3837895,21.2452477 L18.325766,14.3437136 L24.4622015,9.43579331 C24.7555328,9.20091202 24.868161,8.82661901 24.7491681,8.48135922 L24.7491681,8.48135922 Z" id="Fill-1" fill="#36B4A7" mask="url(#mask-4)"></path>
                                            </g>
                                            <g id="Star-Green" transform="translate(54.000000, 0.000000)">
                                                <mask id="mask-6" fill="white">
                                                    <use xlink:href="#path-5"></use>
                                                </mask>
                                                <g id="Clip-2"></g>
                                                <path d="M24.7491681,8.48135922 C24.6298985,8.13609942 24.305297,7.89598693 23.9220292,7.87009244 L16.5621807,7.36894261 L13.253625,0.520243739 C13.1011481,0.204278713 12.7652007,0 12.3979831,0 C12.0304888,0 11.6948182,0.204278713 11.5420645,0.520243739 L8.23350881,7.36894261 L0.873660372,7.87009244 C0.490392584,7.89598693 0.165791057,8.13609942 0.0467981694,8.48109766 C-0.0721947178,8.82661901 0.0401567059,9.20091202 0.333488009,9.43579331 L6.46992353,14.3437136 L4.41217676,21.2452477 C4.30619008,21.5996621 4.44566081,21.984156 4.75919323,22.2020358 C5.06885146,22.4183463 5.50691133,22.4306397 5.82957576,22.2326384 L12.3979831,18.2059153 L18.9661138,22.2326384 C19.2887782,22.4306397 19.7268381,22.4178232 20.0362196,22.2022974 C20.349752,21.984156 20.4894995,21.5996621 20.3837895,21.2452477 L18.325766,14.3437136 L24.4622015,9.43579331 C24.7555328,9.20091202 24.868161,8.82661901 24.7491681,8.48135922 L24.7491681,8.48135922 Z" id="Fill-1" fill="#36B4A7" mask="url(#mask-6)"></path>
                                            </g>
                                            <g id="Star-Green" transform="translate(27.000000, 0.000000)">
                                                <mask id="mask-8" fill="white">
                                                    <use xlink:href="#path-7"></use>
                                                </mask>
                                                <g id="Clip-2"></g>
                                                <path d="M24.7491681,8.48135922 C24.6298985,8.13609942 24.305297,7.89598693 23.9220292,7.87009244 L16.5621807,7.36894261 L13.253625,0.520243739 C13.1011481,0.204278713 12.7652007,0 12.3979831,0 C12.0304888,0 11.6948182,0.204278713 11.5420645,0.520243739 L8.23350881,7.36894261 L0.873660372,7.87009244 C0.490392584,7.89598693 0.165791057,8.13609942 0.0467981694,8.48109766 C-0.0721947178,8.82661901 0.0401567059,9.20091202 0.333488009,9.43579331 L6.46992353,14.3437136 L4.41217676,21.2452477 C4.30619008,21.5996621 4.44566081,21.984156 4.75919323,22.2020358 C5.06885146,22.4183463 5.50691133,22.4306397 5.82957576,22.2326384 L12.3979831,18.2059153 L18.9661138,22.2326384 C19.2887782,22.4306397 19.7268381,22.4178232 20.0362196,22.2022974 C20.349752,21.984156 20.4894995,21.5996621 20.3837895,21.2452477 L18.325766,14.3437136 L24.4622015,9.43579331 C24.7555328,9.20091202 24.868161,8.82661901 24.7491681,8.48135922 L24.7491681,8.48135922 Z" id="Fill-1" fill="#36B4A7" mask="url(#mask-8)"></path>
                                            </g>
                                            <g id="Star-Green">
                                                <mask id="mask-10" fill="white">
                                                    <use xlink:href="#path-9"></use>
                                                </mask>
                                                <g id="Clip-2"></g>
                                                <path d="M24.7491681,8.48135922 C24.6298985,8.13609942 24.305297,7.89598693 23.9220292,7.87009244 L16.5621807,7.36894261 L13.253625,0.520243739 C13.1011481,0.204278713 12.7652007,0 12.3979831,0 C12.0304888,0 11.6948182,0.204278713 11.5420645,0.520243739 L8.23350881,7.36894261 L0.873660372,7.87009244 C0.490392584,7.89598693 0.165791057,8.13609942 0.0467981694,8.48109766 C-0.0721947178,8.82661901 0.0401567059,9.20091202 0.333488009,9.43579331 L6.46992353,14.3437136 L4.41217676,21.2452477 C4.30619008,21.5996621 4.44566081,21.984156 4.75919323,22.2020358 C5.06885146,22.4183463 5.50691133,22.4306397 5.82957576,22.2326384 L12.3979831,18.2059153 L18.9661138,22.2326384 C19.2887782,22.4306397 19.7268381,22.4178232 20.0362196,22.2022974 C20.349752,21.984156 20.4894995,21.5996621 20.3837895,21.2452477 L18.325766,14.3437136 L24.4622015,9.43579331 C24.7555328,9.20091202 24.868161,8.82661901 24.7491681,8.48135922 L24.7491681,8.48135922 Z" id="Fill-1" fill="#36B4A7" mask="url(#mask-10)"></path>
                                            </g>
                                        </g>
                                    </g>
                                </g>
                            </g>
                        </g>
                    </g>
                </g>
            </g>
        </g>
    </g>
</svg>