<?xml version="1.0" encoding="UTF-8" standalone="no"?>
<svg width="23px" height="19px" viewBox="0 0 23 19" version="1.1" xmlns="http://www.w3.org/2000/svg" xmlns:xlink="http://www.w3.org/1999/xlink">
    <!-- Generator: Sketch 44.1 (41455) - http://www.bohemiancoding.com/sketch -->
    <title>CheckMark-Green</title>
    <desc>Created with Sketch.</desc>
    <defs>
        <polygon id="path-1" points="11.5 0 23 0 23 19 11.5 19 0 19 0 0"></polygon>
    </defs>
    <g id="HDMock-Sports-v3" stroke="none" stroke-width="1" fill="none" fill-rule="evenodd">
        <g id="Template-Sports-Boy-Desktop-v4" transform="translate(-640.000000, -2044.000000)">
            <g id="Desktop-Group" transform="translate(-1.000000, -18.000000)">
                <g id="Body">
                    <g id="BelowFold" transform="translate(0.000000, 146.000000)">
                        <g id="Module-Subscribe" transform="translate(0.000000, 1393.000000)">
                            <g id="Group-5" transform="translate(577.000000, 238.000000)">
                                <g id="Stacked-Group" transform="translate(63.000000, 41.000000)">
                                    <g id="Stacked-Group-2">
                                        <g transform="translate(1.000000, 59.000000)" id="Stacked-Group-3">
                                            <g transform="translate(0.000000, 184.000000)">
                                                <g id="CheckMark-Green" transform="translate(0.000000, 1.000000)">
                                                    <mask id="mask-2" fill="white">
                                                        <use xlink:href="#path-1"></use>
                                                    </mask>
                                                    <g id="Clip-2"></g>
                                                    <path d="M20.6442889,0.462886534 L7.78524467,15.1854287 L2.35571142,8.96923124 C2.09504475,8.67078354 1.74876698,8.50634471 1.38000032,8.50634471 C1.01123366,8.50634471 0.664700331,8.67078354 0.404033668,8.96923124 C0.143367005,9.26767895 -0.000255215095,9.66443883 3.40456922e-07,10.086362 C3.40456922e-07,10.5085777 0.143622561,10.9053376 0.404289223,11.2037853 L6.80953357,18.5374061 C7.07020024,18.8358538 7.41673356,19 7.78524467,19 C8.15401133,19 8.50054466,18.8358538 8.76095577,18.5371135 L22.5957111,2.69714796 C22.8563778,2.39870026 23,2.00194037 23,1.58001725 C23,1.15809412 22.8563778,0.761334237 22.5957111,0.462886534 C22.3350445,0.164438832 21.9887667,0 21.62,0 C21.2512334,0 20.9049556,0.164438832 20.6442889,0.462886534 Z" id="Fill-1" fill="#36B4A7" mask="url(#mask-2)"></path>
                                                </g>
                                            </g>
                                        </g>
                                    </g>
                                </g>
                            </g>
                        </g>
                    </g>
                </g>
            </g>
        </g>
    </g>
</svg>